PathFileType	3	(X/Y/Z)	E:\ViconData\BIOM9541 2025\Week 7\Wed1100\Hanif 90 squat 2-5 Squat 01.trc
DataRate	CameraRate	NumFrames	NumMarkers	Units	OrigDataRate	OrigDataStartFrame	OrigNumFrames
200.0	200.0	20	19	mm	200.0	1284	1467	
Frame#	Time	C7			CLAV			RBAK			LASI			RASI			LPSI			RPSI			LTHI			LKNE			LTIB			LANK			LHEE			LTOE			RTHI			RKNE			RTIB			RANK			RHEE			RTOE			
		X1	Y1	Z1	X2	Y2	Z2	X3	Y3	Z3	X4	Y4	Z4	X5	Y5	Z5	X6	Y6	Z6	X7	Y7	Z7	X8	Y8	Z8	X9	Y9	Z9	X10	Y10	Z10	X11	Y11	Z11	X12	Y12	Z12	X13	Y13	Z13	X14	Y14	Z14	X15	Y15	Z15	X16	Y16	Z16	X17	Y17	Z17	X18	Y18	Z18	X19	Y19	Z19	
1284	6.415	350.56146	1317.0599	-1227.1737	203.92805	1250.7324	-1220.5227	375.24451	1230.8793	-1370.2648	234.4995	878.74084	-1090.0156	239.30128	885.87024	-1352.2139	405.45108	944.25702	-1170.9573	408.10715	940.48969	-1245.0068	276.68423	561.55273	-1001.3958	280.67303	421.38733	-998.00977	301.44299	219.54895	-958.7135	309.56705	62.385139	-963.08044	329.5307	46.983231	-1022.6628	163.28831	38.650681	-938.8316	298.40335	733.22498	-1416.0626	294.1326	422.02536	-1429.7223	304.59863	335.00278	-1452.5012	307.33945	72.524605	-1447.6244	328.75864	47.292976	-1383.127	165.84428	41.125381	-1474.4148
1285	6.42	350.97787	1317.0048	-1226.9772	204.17294	1250.9915	-1220.5181	375.6713	1230.7302	-1369.9993	234.04474	878.50336	-1089.832	239.06738	885.8501	-1352.0686	405.17624	943.94836	-1170.8552	407.98364	940.46844	-1244.8662	277.43369	561.18274	-1001.5838	281.79907	421.15405	-998.17474	302.26617	219.48145	-959.13135	310.33286	62.153728	-963.21564	329.54062	46.851982	-1022.5717	163.37045	38.620388	-938.70349	298.34418	733.02222	-1415.9718	295.50729	421.87402	-1429.1312	305.78748	334.91019	-1452.1255	307.51138	72.41819	-1447.6252	328.85211	47.209553	-1383.2749	165.89676	41.089478	-1474.4534
1286	6.425	351.3222	1316.9272	-1226.741	204.64737	1250.8927	-1220.5194	376.12073	1230.5194	-1369.7611	233.6904	878.24707	-1089.6461	239.05185	885.47058	-1351.4437	404.94992	943.64856	-1170.84	407.77127	940.37415	-1244.6251	278.02829	560.90009	-1001.6426	282.83972	420.83838	-998.39911	302.6073	219.48497	-958.7934	310.45956	62.125233	-963.17456	329.5433	46.745026	-1022.4901	163.38942	38.569496	-938.62506	298.24854	732.92181	-1415.9041	296.77716	421.71231	-1428.5977	306.83017	334.82678	-1451.7562	307.52274	72.141174	-1447.5697	328.82709	46.810249	-1383.5111	165.95645	41.047981	-1474.4949
1287	6.43	351.68216	1316.8302	-1226.4423	204.87935	1251.0358	-1220.4189	376.41101	1230.1224	-1369.4486	233.39787	877.95642	-1089.4818	238.83298	885.48846	-1351.2717	404.72699	943.34344	-1170.484	408.29434	940.9953	-1245.0024	278.64862	560.48859	-1001.7544	283.71164	420.55603	-998.55865	303.08847	219.37735	-958.86182	310.53046	62.089359	-963.13068	329.49869	46.701309	-1022.4047	163.37112	38.606274	-938.68933	298.14139	732.83118	-1415.8488	297.94275	421.68872	-1428.0626	307.8569	334.83643	-1451.4731	307.64276	72.131134	-1447.5803	328.87918	46.779728	-1383.5183	165.96916	41.111378	-1474.5753
1288	6.435	352.04007	1316.7584	-1226.1716	205.12263	1251.1398	-1220.2633	376.7644	1229.8356	-1369.1045	233.16423	877.6156	-1089.3337	238.65633	885.47607	-1351.135	404.51773	943.05084	-1170.0519	408.18509	940.7688	-1244.8424	279.18311	560.1087	-1001.7555	284.48108	420.24207	-998.64728	303.52655	219.28619	-958.87311	310.58041	62.050262	-963.02808	329.48956	46.749493	-1022.3419	163.3925	38.578369	-938.55219	298.04251	732.79578	-1415.8175	299.09293	421.65775	-1427.6285	308.80109	334.89304	-1451.1805	307.72513	72.190491	-1447.5909	328.91678	46.730656	-1383.4744	166.021	41.158894	-1474.6185
1289	6.44	352.35245	1316.5861	-1225.9309	205.35851	1251.2556	-1220.1696	377.14499	1229.4431	-1368.772	232.98489	877.24231	-1089.1755	238.49232	885.43329	-1350.9531	404.37344	942.83105	-1169.7111	408.01587	940.3974	-1244.601	279.57938	559.82147	-1001.6226	285.0885	419.98865	-998.67859	303.84875	219.18181	-958.8775	310.66589	61.973938	-962.97742	329.46732	46.755108	-1022.2842	163.4156	38.555523	-938.49365	297.97064	732.75012	-1415.7836	300.082	421.65576	-1427.1705	309.70496	334.86853	-1450.9282	307.82849	72.210236	-1447.6029	328.92145	46.723286	-1383.3787	166.0573	41.222172	-1474.6788
1290	6.445	352.638	1316.4773	-1225.6567	205.58914	1251.3209	-1220.0856	377.54309	1229.1702	-1368.4244	232.81245	877.02344	-1088.9783	238.36778	885.28558	-1350.7458	404.2803	942.55927	-1169.6433	407.78427	939.95251	-1244.3015	279.88574	559.60815	-1001.4367	285.58713	419.80756	-998.70862	304.06097	219.15059	-958.83673	310.78024	61.927029	-962.96539	329.48602	46.659473	-1022.2532	163.41934	38.529675	-938.46771	297.90887	732.66357	-1415.7462	301.07806	421.49036	-1426.8074	310.5564	334.8082	-1450.7062	307.9425	72.135544	-1447.6191	328.98291	46.633038	-1383.5071	166.10548	41.213478	-1474.7654
1291	6.45	352.90417	1316.3232	-1225.377	205.48662	1251.7651	-1219.9113	377.8139	1228.9196	-1367.9813	232.63585	876.86499	-1088.7015	238.24823	885.1618	-1350.5168	404.22141	942.28699	-1169.702	407.4678	939.41547	-1243.9404	280.07852	559.42615	-1001.2451	285.94412	419.66409	-998.69495	304.21616	219.13054	-958.81909	310.74103	62.261997	-962.73621	329.73593	46.763794	-1022.4731	163.4411	38.466381	-938.29584	297.83047	732.52423	-1415.6832	301.9581	421.36212	-1426.4143	311.31165	334.67618	-1450.4398	308.07953	72.034004	-1447.6149	329.06995	46.52269	-1383.6826	166.14467	41.182407	-1474.8127
1292	6.455	353.14566	1316.2695	-1225.1085	205.94095	1251.5262	-1219.8456	378.19568	1228.7078	-1367.6581	232.5321	876.71057	-1088.4374	238.15671	885.09906	-1350.303	404.1904	942.06213	-1169.6581	407.46857	939.22803	-1243.8242	280.17294	559.21375	-1001.0495	286.2084	419.55331	-998.68158	304.32016	219.08253	-958.80176	310.9556	61.865543	-962.98303	329.39444	46.511623	-1022.2243	163.4045	38.461483	-938.19501	297.73666	732.49115	-1415.5892	302.74939	421.26929	-1426.0726	312.00177	334.62439	-1450.2303	308.19412	71.988487	-1447.6195	329.16119	46.469124	-1383.7216	166.19548	41.205669	-1474.828
1293	6.46	353.36758	1316.2588	-1224.8394	206.06226	1251.562	-1219.6449	378.4563	1228.4404	-1367.3319	232.48201	876.52252	-1088.2395	238.04843	885.09955	-1350.1	404.17007	941.9198	-1169.3345	407.37143	939.0271	-1243.6338	280.19333	559.03198	-1000.8539	286.40128	419.4437	-998.67999	304.39917	218.98817	-958.82263	310.92227	61.827446	-963.01801	329.34576	46.561787	-1022.2204	163.3819	38.460495	-938.11987	297.64844	732.54437	-1415.5106	303.47058	421.31406	-1425.7665	312.63467	334.67493	-1450.0076	308.2597	72.060432	-1447.614	329.17514	46.487339	-1383.6755	166.23265	41.28965	-1474.8541
1294	6.465	353.56824	1316.2288	-1224.5261	206.18292	1251.6234	-1219.453	378.69254	1228.2573	-1366.9758	232.47818	876.41425	-1088.015	237.97931	885.13275	-1349.8715	404.1524	941.76282	-1168.9635	407.35184	938.89185	-1243.5028	280.18362	558.88824	-1000.6906	286.52167	419.35574	-998.70905	304.45184	218.89706	-958.84808	310.87991	61.816593	-962.95966	329.30081	46.605721	-1022.231	163.34026	38.443691	-938.039	297.58987	732.54535	-1415.4027	304.1149	421.31262	-1425.4764	313.16391	334.71072	-1449.8203	308.35239	72.073761	-1447.599	329.21774	46.471504	-1383.6814	166.28122	41.293724	-1474.8046
1295	6.47	353.75641	1316.2205	-1224.3107	206.3018	1251.7001	-1219.3402	378.91876	1228.0692	-1366.7043	232.48424	876.33643	-1087.808	237.92583	885.11646	-1349.6217	404.2207	941.57678	-1168.9263	407.42145	938.88293	-1243.4266	280.11588	558.82495	-1000.5496	286.55426	419.28226	-998.67926	304.44351	218.88174	-958.8244	310.97958	61.78706	-962.99988	329.56204	46.780361	-1022.515	163.31412	38.44297	-938.07684	297.52988	732.53241	-1415.2841	304.66684	421.26382	-1425.2297	313.62915	334.67441	-1449.6521	308.42419	72.037201	-1447.5798	329.28415	46.36174	-1383.8311	166.30275	41.290112	-1474.8228
1296	6.475	353.95035	1316.2389	-1224.0938	206.43202	1251.748	-1219.1836	379.26129	1228.0352	-1366.4374	232.53336	876.37836	-1087.5912	237.89903	885.10986	-1349.3868	404.30722	941.46838	-1169.0692	407.50586	938.92963	-1243.3665	279.92462	558.88232	-1000.3513	286.48041	419.34473	-998.61932	304.43951	218.90593	-958.82184	310.06924	61.881397	-962.98376	329.59055	46.662376	-1022.5253	163.33617	38.434856	-938.08624	297.51239	732.4873	-1415.1531	305.14828	421.14648	-1424.9647	314.08801	334.59894	-1449.4756	308.51923	71.954697	-1447.5864	329.319	46.275661	-1383.887	166.34578	41.215206	-1474.8417
1297	6.48	354.10614	1316.2656	-1223.8937	206.55867	1251.8182	-1219.0283	379.49945	1227.9806	-1366.1788	232.60965	876.44568	-1087.37	237.89374	885.11041	-1349.152	404.38837	941.43158	-1169.0734	407.57434	938.93079	-1243.2948	279.7438	558.90576	-1000.2188	286.3725	419.39774	-998.55963	304.41382	218.94765	-958.80994	310.5015	62.075722	-962.94727	329.24451	46.445679	-1022.3249	163.30347	38.437992	-938.11621	297.50378	732.49835	-1414.9875	305.58243	421.09753	-1424.7452	314.43958	334.60556	-1449.3127	308.56885	71.924469	-1447.5889	329.33868	46.265583	-1383.9453	166.38179	41.227512	-1474.8943
1298	6.485	354.27026	1316.3341	-1223.6926	206.42303	1252.2104	-1218.7732	379.6821	1227.9033	-1365.9449	232.68713	876.53687	-1087.1606	237.87393	885.18848	-1348.8934	404.43918	941.48157	-1168.8884	407.60944	938.92914	-1243.2034	279.55438	558.89801	-1000.1199	286.17157	419.42139	-998.44928	304.36148	218.88907	-958.84741	310.58975	61.87727	-963.0835	329.45926	46.691265	-1022.6035	163.29405	38.456558	-938.0871	297.51859	732.51923	-1414.8204	305.93149	421.12323	-1424.5347	314.72	334.64838	-1449.1516	308.57245	71.978676	-1447.5728	329.32776	46.358265	-1383.795	166.38353	41.273006	-1474.9067
1299	6.49	354.44049	1316.3621	-1223.4897	206.55679	1252.2521	-1218.5753	379.81683	1227.8324	-1365.7034	232.80098	876.60907	-1087.0083	237.87009	885.32654	-1348.631	404.47443	941.54175	-1168.4933	407.74698	939.52063	-1243.0369	279.28879	558.88477	-1000.0018	285.93765	419.41876	-998.32532	304.24805	218.87221	-958.83673	310.50879	61.880077	-963.06927	329.38742	46.767433	-1022.6002	163.27843	38.481464	-938.08319	297.52872	732.59052	-1414.6581	306.21167	421.22064	-1424.3367	314.96103	334.69901	-1448.9901	308.58792	72.059532	-1447.5551	329.30289	46.378639	-1383.7141	166.37354	41.322582	-1474.9099
1300	6.495	354.60233	1316.3788	-1223.2626	206.71217	1252.3356	-1218.4508	379.9877	1227.8196	-1365.5094	232.89359	876.72845	-1086.8148	237.90363	885.4353	-1348.4686	404.55087	941.60004	-1168.2917	407.59015	938.79956	-1242.9424	278.98932	558.96985	-999.84027	285.61957	419.3764	-998.22638	304.07608	218.82214	-958.79083	310.4313	61.880531	-963.0625	329.35312	46.828602	-1022.6259	163.24763	38.473412	-938.00867	297.58243	732.62524	-1414.4777	306.46918	421.24725	-1424.1378	315.20377	334.75418	-1448.8131	308.61948	72.098831	-1447.5524	329.29025	46.365299	-1383.6681	166.39835	41.395237	-1474.9363
1301	6.5	354.76624	1316.3585	-1223.0471	206.83099	1252.4261	-1218.3794	380.18735	1227.8632	-1365.2931	232.98055	876.91016	-1086.6232	237.92462	885.54584	-1348.3094	404.66031	941.62164	-1168.3031	407.69904	938.87946	-1242.9039	278.71481	559.14417	-999.70551	285.24982	419.46027	-998.06818	303.89551	218.89027	-958.72522	310.43127	61.866215	-963.08588	329.06036	46.584499	-1022.3892	163.2029	38.47525	-937.98511	297.67545	732.62158	-1414.3058	306.73846	421.22031	-1423.9727	315.40268	334.75052	-1448.6598	308.67407	72.081276	-1447.5206	329.23822	46.282249	-1383.6891	166.42064	41.380703	-1474.9001
1302	6.505	354.95224	1316.3508	-1222.8484	207.23375	1252.1281	-1218.4001	380.34717	1227.9631	-1365.0715	233.10049	877.13257	-1086.4551	237.94342	885.60895	-1348.15	404.77963	941.60291	-1168.4271	407.78033	938.98993	-1242.8362	278.47369	559.32147	-999.59967	284.87555	419.56671	-997.92566	303.66766	218.96313	-958.64856	310.44327	61.88657	-963.11261	328.99979	46.523708	-1022.3888	163.15746	38.484013	-938.00275	297.73801	732.5968	-1414.1272	306.94305	421.13718	-1423.7955	315.55914	334.70264	-1448.5107	308.7038	72.028557	-1447.5032	329.28552	46.226818	-1383.8152	166.43599	41.314842	-1474.8774
1303	6.51	355.11328	1316.3071	-1222.6312	207.38036	1252.1859	-1218.2866	380.52011	1228.0046	-1364.9045	233.22533	877.31769	-1086.3187	237.97493	885.64563	-1347.9847	404.892	941.62366	-1168.4702	407.90479	939.10162	-1242.8448	278.24713	559.51202	-999.44244	284.45288	419.70645	-997.72968	303.41711	219.0034	-958.52417	310.50241	61.883587	-963.19983	328.95242	46.476826	-1022.3825	163.11536	38.479103	-937.98163	297.81839	732.57733	-1413.9658	307.09607	421.13339	-1423.6455	315.6767	334.66763	-1448.3663	308.69937	71.976646	-1447.4727	329.33182	46.16803	-1383.8973	166.43483	41.321381	-1474.8807
